<?xml version="1.0" encoding="UTF-8"?>
<svg width="512px" height="512px" viewBox="0 0 512 512" version="1.1" xmlns="http://www.w3.org/2000/svg" xmlns:xlink="http://www.w3.org/1999/xlink">
    <!-- Generator: Sketch 56.2 (81672) - https://sketch.com -->
    <title>icon</title>
    <desc>Created with Sketch.</desc>
    <g id="icon" stroke="none" stroke-width="1" fill="none" fill-rule="evenodd">
        <path d="M130.279314,222.08805 L69.1090147,222.08805 L69.1090147,250.146751 L130.279314,250.146751 C145.46187,250.146751 152.283019,243.721094 152.283019,236.224495 C152.283019,228.513707 145.46187,222.08805 130.279314,222.08805 Z M153.192631,280.903403 L216.417191,333.320755 L143.882165,333.320755 L93.4324303,286.800355 L69.8314816,286.800355 L69.8314816,333.320755 L17,333.320755 L17,180 L138.469103,180 C185.671001,180 208.838904,205.116648 208.838904,232.417352 C208.838904,259.281245 190.217972,277.845724 153.192631,280.903403 Z M286.046959,180 L344.685535,180 L219.155546,333.320755 L160.29979,333.320755 L286.046959,180 Z M368.709679,224.117938 L295.582809,224.117938 L295.582809,180 L495,180 L495,224.117938 L421.656137,224.117938 L421.656137,333.320755 L368.709679,333.320755 L368.709679,224.117938 Z" id="R/TRAP" fill="#7E7E7E" fill-rule="nonzero"></path>
    </g>
</svg>