<?xml version="1.0" encoding="UTF-8"?>
<svg width="286px" height="85px" viewBox="0 0 286 85" version="1.1" xmlns="http://www.w3.org/2000/svg" xmlns:xlink="http://www.w3.org/1999/xlink">
    <!-- Generator: Sketch 54.1 (76490) - https://sketchapp.com -->
    <title>logo</title>
    <desc>Created with Sketch.</desc>
    <g id="Symbols" stroke="none" stroke-width="1" fill="none" fill-rule="evenodd">
        <g id="hero" transform="translate(-170.000000, -45.000000)" fill-rule="nonzero">
            <g id="Group">
                <g transform="translate(170.000000, 34.000000)">
                    <g id="intro" transform="translate(0.000000, 11.000000)">
                        <g id="logo">
                            <path d="M17.656,6.296 L8.76,6.296 L8.76,10.488 L17.656,10.488 C19.864,10.488 20.856,9.528 20.856,8.408 C20.856,7.256 19.864,6.296 17.656,6.296 Z M21.08,15.32 L30.424,23 L19.704,23 L12.248,16.184 L8.76,16.184 L8.76,23 L0.952,23 L0.952,0.536 L18.904,0.536 C25.88,0.536 29.304,4.216 29.304,8.216 C29.304,12.152 26.552,14.872 21.08,15.32 Z M46.168,0.536 L54.808,0.536 L36.312,23 L27.64,23 L46.168,0.536 Z M62.232,7 L51.448,7 L51.448,0.536 L80.856,0.536 L80.856,7 L70.04,7 L70.04,23 L62.232,23 L62.232,7 Z M99.512,6.296 L90.616,6.296 L90.616,10.488 L99.512,10.488 C101.72,10.488 102.712,9.528 102.712,8.408 C102.712,7.256 101.72,6.296 99.512,6.296 Z M102.936,15.32 L112.28,23 L101.56,23 L94.104,16.184 L90.616,16.184 L90.616,23 L82.808,23 L82.808,0.536 L100.76,0.536 C107.736,0.536 111.16,4.216 111.16,8.216 C111.16,12.152 108.408,14.872 102.936,15.32 Z M134.424,18.584 L121.944,18.584 L119.576,23 L110.744,23 L122.936,0.536 L133.784,0.536 L145.976,23 L136.76,23 L134.424,18.584 Z M128.792,7.128 L127.736,7.128 L124.6,13.24 L131.8,13.24 L128.792,7.128 Z M162.648,6.296 L154.104,6.296 L154.104,10.872 L162.648,10.872 C164.856,10.872 165.912,9.784 165.912,8.6 C165.912,7.256 164.856,6.296 162.648,6.296 Z M164.056,16.568 L154.104,16.568 L154.104,23 L146.296,23 L146.296,0.536 L164.056,0.536 C171.064,0.536 174.552,4.184 174.552,8.536 C174.552,12.728 171.16,16.568 164.056,16.568 Z" id="R/TRAP" fill="#FFFFFF"></path>
                            <path d="M27.192,30.536 L27.192,36.264 L8.76,36.264 L8.76,39.08 L19.384,39.08 L19.384,44.168 L8.76,44.168 L8.76,47.368 L27.192,47.368 L27.192,53 L0.952,53 L0.952,30.536 L27.192,30.536 Z M58.168,45.224 C58.168,50.76 52.056,53.64 43.256,53.64 C37.176,53.64 32.568,52.232 28.792,49.32 L32.216,44.488 C35.416,46.92 39.512,47.752 44.024,47.752 C48.504,47.752 49.528,47.08 49.528,46.184 C49.528,45.288 47.64,45.096 42.808,44.84 C36.76,44.552 29.752,43.304 29.752,37.672 C29.752,32.968 34.456,29.736 43.512,29.736 C49.752,29.736 54.36,31.048 58.008,33.576 L54.68,38.504 C51.352,36.296 47.096,35.528 42.776,35.528 C39.48,35.528 38.36,36.072 38.36,36.936 C38.36,37.864 39.928,38.184 43.8,38.344 C51.672,38.664 58.168,40.2 58.168,45.224 Z M89.688,45.224 C89.688,50.76 83.576,53.64 74.776,53.64 C68.696,53.64 64.088,52.232 60.312,49.32 L63.736,44.488 C66.936,46.92 71.032,47.752 75.544,47.752 C80.024,47.752 81.048,47.08 81.048,46.184 C81.048,45.288 79.16,45.096 74.328,44.84 C68.28,44.552 61.272,43.304 61.272,37.672 C61.272,32.968 65.976,29.736 75.032,29.736 C81.272,29.736 85.88,31.048 89.528,33.576 L86.2,38.504 C82.872,36.296 78.616,35.528 74.296,35.528 C71,35.528 69.88,36.072 69.88,36.936 C69.88,37.864 71.448,38.184 75.32,38.344 C83.192,38.664 89.688,40.2 89.688,45.224 Z M119.096,30.536 L119.096,36.264 L100.664,36.264 L100.664,39.08 L111.288,39.08 L111.288,44.168 L100.664,44.168 L100.664,47.368 L119.096,47.368 L119.096,53 L92.856,53 L92.856,30.536 L119.096,30.536 Z M151.224,53 L142.264,53 L129.464,38.888 L129.464,53 L121.72,53 L121.72,30.536 L131.864,30.536 L143.48,43.592 L143.48,30.536 L151.224,30.536 L151.224,53 Z M163.992,37 L153.208,37 L153.208,30.536 L182.616,30.536 L182.616,37 L171.8,37 L171.8,53 L163.992,53 L163.992,37 Z M192.376,53 L184.568,53 L184.568,30.536 L192.376,30.536 L192.376,53 Z M216.408,48.584 L203.928,48.584 L201.56,53 L192.728,53 L204.92,30.536 L215.768,30.536 L227.96,53 L218.744,53 L216.408,48.584 Z M210.776,37.128 L209.72,37.128 L206.584,43.24 L213.784,43.24 L210.776,37.128 Z M228.28,53 L228.28,30.536 L236.088,30.536 L236.088,46.536 L254.392,46.536 L254.392,53 L228.28,53 Z M284.696,45.224 C284.696,50.76 278.584,53.64 269.784,53.64 C263.704,53.64 259.096,52.232 255.32,49.32 L258.744,44.488 C261.944,46.92 266.04,47.752 270.552,47.752 C275.032,47.752 276.056,47.08 276.056,46.184 C276.056,45.288 274.168,45.096 269.336,44.84 C263.288,44.552 256.28,43.304 256.28,37.672 C256.28,32.968 260.984,29.736 270.04,29.736 C276.28,29.736 280.888,31.048 284.536,33.576 L281.208,38.504 C277.88,36.296 273.624,35.528 269.304,35.528 C266.008,35.528 264.888,36.072 264.888,36.936 C264.888,37.864 266.456,38.184 270.328,38.344 C278.2,38.664 284.696,40.2 284.696,45.224 Z M0.952,83 L0.952,60.536 L8.76,60.536 L8.76,76.536 L27.064,76.536 L27.064,83 L0.952,83 Z M36.824,83 L29.016,83 L29.016,60.536 L36.824,60.536 L36.824,83 Z M69.112,75.224 C69.112,80.76 63,83.64 54.2,83.64 C48.12,83.64 43.512,82.232 39.736,79.32 L43.16,74.488 C46.36,76.92 50.456,77.752 54.968,77.752 C59.448,77.752 60.472,77.08 60.472,76.184 C60.472,75.288 58.584,75.096 53.752,74.84 C47.704,74.552 40.696,73.304 40.696,67.672 C40.696,62.968 45.4,59.736 54.456,59.736 C60.696,59.736 65.304,61.048 68.952,63.576 L65.624,68.504 C62.296,66.296 58.04,65.528 53.72,65.528 C50.424,65.528 49.304,66.072 49.304,66.936 C49.304,67.864 50.872,68.184 54.744,68.344 C62.616,68.664 69.112,70.2 69.112,75.224 Z M81.112,67 L70.328,67 L70.328,60.536 L99.736,60.536 L99.736,67 L88.92,67 L88.92,83 L81.112,83 L81.112,67 Z" id="ESSENTIALSLIST" stroke="#FFFFFF"></path>
                        </g>
                    </g>
                </g>
            </g>
        </g>
    </g>
</svg>